{"title":"Painkiller Jane - S01 - Ep 22 [DVDRIP] 2007 ITA/ENG","uid":15643047,"size":9092325376,"categoryP":"video","categoryS":"hd___tv_shows","magnet":"?xt=urn:btih:28833015c1501c77865ef1ddb108425125caaec7&amp;dn=Painkiller+Jane+-+S01+-+Ep+22+%5BDVDRIP%5D+2007+ITA%2FENG&amp;tr=udp%3A%2F%2Ftracker.leechers-paradise.org%3A6969&amp;tr=udp%3A%2F%2Fzer0day.ch%3A1337&amp;tr=udp%3A%2F%2Fopen.demonii.com%3A1337&amp;tr=udp%3A%2F%2Ftracker.coppersurfer.tk%3A6969&amp;tr=udp%3A%2F%2Fexodus.desync.com%3A6969","seeders":0,"leechers":1,"uploader":"DPA65MI","files":22,"time":1472034575,"description":"Trama\r\nL'agente speciale della DEA, Jane Vasco ha delle doti speciali. Da bambina suo padre la chiamava Painkiller Jane descrivendo la sua volontà e capacità di resistere persino nelle situazioni più dolorose. Ma la sua resistenza sta per essere messa alla prova. Jane è reclutata da un ente governativo segreto dedicato al contenere e, se necessario, a neutralizzare la minaccia degli individui chiamati &quot;Neuro&quot; e che hanno delle capacità superumane. Nessuno sa che cosa ha causato le aberrazioni che hanno portato all'aumento delle loro abilità. I loro poteri sono ampi e vari, qualcuno ha abilità telecinetiche, altri sono in grado di provocare allucinazioni e così via. Jane potrebbe essere una di loro. Durante il corso della sua prima missione con la sua nuova squadra, scopre di possedere anch'essa dei formidabili poteri: non può essere uccisa, poiché guarisce da qualunque ferita. Però non può ancora eliminare il dolore. La scoperta delle sue capacità la rende ancor più determinata a svelare quanto più possibile sui Neuros.\r\n\r\n\r\n\r\n\r\nGeneral\r\nFormat : AVI \r\nFormat/Info : Audio Video Interleave \r\nFile size : 394 MiB \r\nDuration : 46 min \r\nOverall bit rate mode : Variable \r\nOverall bit rate : 1 176 kb/s \r\nWriting application : VirtualDubMod 1.5.10.2 (build 2542/release) \r\nWriting library : VirtualDubMod build 2542/release \r\n\r\nVideo \r\nID : 0 \r\nFormat : MPEG-4 Visual \r\nFormat profile : Advanced    \r\nFormat settings, BVOP : 1 \r\nFormat settings, QPel : No \r\nFormat settings, GMC : No warppoints \r\nFormat settings, Matrix : Default (MPEG) \r\nMuxing mode : Packed bitstream \r\nCodec ID : XVID \r\nCodec ID/Hint : XviD \r\nDuration : 46 min \r\nBit rate : 866 kb/s \r\nWidth : 624 pixels \r\nHeight : 352 pixels \r\nDisplay aspect ratio : 16:9 \r\nFrame rate : 23.976 (23976/1000) FPS \r\nColor space : YUV \r\nChroma subsampling : 4:2:0 \r\nBit depth : 8 bits \r\nScan type : Progressive \r\nCompression mode : Lossy \r\nBits/(Pixel*Frame) : 0.164 \r\nStream size : 290 MiB (74%) \r\nWriting library : XviD 1.1.2 (UTC 2006-11-01) \r\n\r\nAudio #1 \r\nID : 1 \r\nFormat : MPEG Audio \r\nFormat version : Version 1 \r\nFormat profile : Layer 3 \r\nMode : Joint stereo \r\nCodec ID : 55 \r\nCodec ID/Hint : MP3 \r\nDuration : 46 min \r\nBit rate mode : Variable \r\nBit rate : 128 kb/s \r\nChannel(s) : 2 channels \r\nSampling rate : 48.0 kHz \r\nCompression mode : Lossy \r\nStream size : 41.5 MiB (11%) \r\nAlignment : Aligned on interleaves \r\nInterleave, duration : 24 ms (0.58 video frame) \r\nInterleave, preload duration : 246 ms \r\nTitle : By Pir8 \r\nWriting library : LAME3.99r \r\nEncoding settings : -m j -V 4 -q 3 -lowpass 17 --abr 128 \r\n\r\nAudio #2 \r\nID : 2 \r\nFormat : MPEG Audio \r\nFormat version : Version 1 \r\nFormat profile : Layer 3 \r\nMode : Joint stereo \r\nMode extension : MS Stereo \r\nCodec ID : 55 \r\nCodec ID/Hint : MP3 \r\nDuration : 46 min \r\nBit rate mode : Variable \r\nBit rate : 166 kb/s \r\nMinimum bit rate : 128 kb/s \r\nChannel(s) : 2 channels \r\nSampling rate : 48.0 kHz \r\nCompression mode : Lossy \r\nStream size : 55.5 MiB (14%) \r\nAlignment : Aligned on interleaves \r\nInterleave, duration : 24 ms (0.58 video frame) \r\nInterleave, preload duration : 111 ms \r\nTitle : Original Audio \r\nWriting library : LAME3.97  \r\nEncoding settings : -m j -V 2 -q 3 -lowpass 18.6 --vbr-new -b 128 \r\n\r\nSottotitoli non presenti","torrent":{"xt":"urn:btih:28833015c1501c77865ef1ddb108425125caaec7","amp;dn":"Painkiller+Jane+-+S01+-+Ep+22+%5BDVDRIP%5D+2007+ITA%2FENG","amp;tr":["udp%3A%2F%2Ftracker.leechers-paradise.org%3A6969","udp%3A%2F%2Fzer0day.ch%3A1337","udp%3A%2F%2Fopen.demonii.com%3A1337","udp%3A%2F%2Ftracker.coppersurfer.tk%3A6969","udp%3A%2F%2Fexodus.desync.com%3A6969"],"infoHash":"28833015c1501c77865ef1ddb108425125caaec7","infoHashBuffer":{"type":"Buffer","data":[40,131,48,21,193,80,28,119,134,94,241,221,177,8,66,81,37,202,174,199]},"announce":[],"urlList":[]}}